# xmcd CD database file
#
# Track frame offsets:
#	150
#	17260
#	34015
#	51073
#
# Disc length: 902 seconds
#
# Revision: 1
# Processed by: cddbd v1.5.2PL0 Copyright (c) Steve Scherf et al.
# Submitted via: CDex 1.70beta2
#
DISCID=21038404
DTITLE=希砂未竜 - 星獣戦隊ギンガマン
DYEAR=1998
DGENRE=Anime
TTITLE0=星獣戦隊ギンガマン
TTITLE1=地球(ほし)に光を
TTITLE2=星獣戦隊ギンガマン (カラオケ)
TTITLE3=地球(ほし)に光を (カラオケ)
EXTD=YEAR: 1998
EXTT0=
EXTT1=
EXTT2=
EXTT3=
PLAYORDER=
